<svg width="136" height="34" viewBox="0 0 136 34" fill="none" xmlns="http://www.w3.org/2000/svg">
<path d="M11.8004 32.4798V4.25314H0V0.610352H28.2385V4.25314H16.232V32.4798H11.8004Z" fill="black"/>
<path d="M44.2657 33.0863C34.7841 33.0863 28.1367 26.3596 28.1367 16.5451C28.1367 6.73057 34.7841 0.00390625 44.2657 0.00390625C53.7472 0.00390625 60.3946 6.73057 60.3946 16.5451C60.3946 26.3596 53.6957 33.0863 44.2657 33.0863ZM44.2657 3.74579C37.2576 3.74579 32.7229 8.75214 32.7229 16.5451C32.7229 24.338 37.2576 29.3444 44.2657 29.3444C51.2738 29.3444 55.7569 24.338 55.7569 16.5451C55.7569 8.75214 51.2738 3.74579 44.2657 3.74579Z" fill="black"/>
<path d="M86.9625 24.9921V0.610352H91.1364V32.4798H87.5809L68.7208 6.88118V32.4798H64.5469V0.610352H69.1846L86.9625 24.9921Z" fill="black"/>
<path d="M101.362 0.610352V32.4798H96.8789V0.610352H101.362Z" fill="black"/>
<path d="M121.446 29.3444C114.85 29.3444 110.11 24.3857 110.11 16.5451C110.11 8.70463 114.85 3.74585 121.446 3.74585C126.782 3.74585 130.254 6.54037 131.625 10.639L136.002 10.3021C134.305 4.05503 129.326 0 121.446 0C112.48 0 105.523 6.72667 105.523 16.5412C105.523 26.3557 112.48 33.0824 121.446 33.0824C129.307 33.0824 134.277 29.0511 135.99 22.8358L131.61 22.4989C130.222 26.5697 126.758 29.3405 121.446 29.3405V29.3444Z" fill="black"/>
</svg>
